<svg width="24" height="24" viewBox="0 0 24 24" fill="none" xmlns="http://www.w3.org/2000/svg">
  <path d="M12 2C12 2 6 7 6 12C6 15.31 8.69 18 12 18C15.31 18 18 15.31 18 12C18 7 12 2 12 2ZM12 16C9.79 16 8 14.21 8 12C8 9.5 10.5 6.5 12 5.5C13.5 6.5 16 9.5 16 12C16 14.21 14.21 16 12 16Z" fill="#dc2626"/>
  <path d="M12 22C17.5228 22 22 17.5228 22 12C22 10.5 21.6 9.1 20.9 7.8L19.2 9.5C19.7 10.2 20 11.1 20 12C20 16.4183 16.4183 20 12 20C7.58172 20 4 16.4183 4 12C4 8.5 6.2 5.5 9.3 4.4L7.8 2.9C3.8 4.7 1 8.9 1 12C1 18.0751 5.92487 23 12 23V22Z" fill="#b91c1c" opacity="0"/>
  <path d="M12 8C12 8 8 11 8 13.5C8 15.4 9.8 17 12 17C14.2 17 16 15.4 16 13.5C16 11 12 8 12 8Z" fill="#ff0000"/>
</svg>
