<svg width="24" height="24" viewBox="0 0 24 24" fill="none" xmlns="http://www.w3.org/2000/svg">
  <path d="M11.9998 22.0002C17.5226 22.0002 21.9998 17.523 21.9998 12.0002C21.9998 6.47732 17.5226 2.00018 11.9998 2.00018C6.47692 2.00018 1.99976 6.47732 1.99976 12.0002C1.99976 17.523 6.47692 22.0002 11.9998 22.0002Z" fill="none"/>
  <path d="M12 2C12 2 7 8 7 13C7 15.76 9.24 18 12 18C14.76 18 17 15.76 17 13C17 8 12 2 12 2ZM12 16C10.34 16 9 14.66 9 13C9 11 11 8 12 7C13 8 15 11 15 13C15 14.66 13.66 16 12 16Z" fill="#ea580c"/>
</svg>
